<svg width="1024" height="374" viewBox="0 0 1024 374" fill="none" xmlns="http://www.w3.org/2000/svg">
<rect width="1024" height="373.333" fill="none"/>
<path d="M353.648 233.171C346.977 233.171 341.083 232.303 335.966 230.566C330.94 228.83 326.691 226.272 323.219 222.891C319.747 219.418 317.142 215.123 315.406 210.006C313.67 204.889 312.802 198.95 312.802 192.188V142.981C312.802 139.965 313.533 137.726 314.995 136.264C316.548 134.802 318.741 134.071 321.574 134.071C324.407 134.071 326.554 134.802 328.016 136.264C329.57 137.726 330.346 139.965 330.346 142.981V192.051C330.346 200.731 332.311 207.265 336.24 211.651C340.261 215.946 346.063 218.093 353.648 218.093C361.232 218.093 366.989 215.946 370.918 211.651C374.847 207.265 376.812 200.731 376.812 192.051V142.981C376.812 139.965 377.543 137.726 379.005 136.264C380.559 134.802 382.752 134.071 385.584 134.071C388.326 134.071 390.427 134.802 391.889 136.264C393.443 137.726 394.22 139.965 394.22 142.981V192.188C394.22 201.143 392.666 208.681 389.559 214.804C386.544 220.926 382.021 225.541 375.99 228.647C369.959 231.663 362.511 233.171 353.648 233.171ZM421.534 257.568C418.793 257.568 416.691 256.837 415.229 255.375C413.767 253.913 413.036 251.766 413.036 248.933V172.313C413.036 169.48 413.767 167.333 415.229 165.871C416.691 164.409 418.747 163.678 421.397 163.678C424.139 163.678 426.24 164.409 427.702 165.871C429.164 167.333 429.895 169.48 429.895 172.313V183.004L428.388 178.892C429.758 174.232 432.545 170.485 436.749 167.653C441.043 164.82 446.024 163.404 451.689 163.404C457.537 163.404 462.654 164.82 467.04 167.653C471.518 170.485 474.99 174.506 477.458 179.715C479.925 184.832 481.158 191 481.158 198.219C481.158 205.346 479.925 211.56 477.458 216.86C474.99 222.068 471.564 226.089 467.178 228.922C462.791 231.754 457.629 233.171 451.689 233.171C446.115 233.171 441.226 231.8 437.023 229.059C432.819 226.226 429.987 222.571 428.525 218.093H430.17V248.933C430.17 251.766 429.393 253.913 427.839 255.375C426.377 256.837 424.276 257.568 421.534 257.568ZM446.892 220.149C450.273 220.149 453.242 219.327 455.801 217.682C458.36 216.037 460.324 213.616 461.695 210.418C463.157 207.128 463.888 203.062 463.888 198.219C463.888 190.908 462.335 185.471 459.228 181.908C456.121 178.253 452.009 176.425 446.892 176.425C443.511 176.425 440.541 177.247 437.982 178.892C435.424 180.446 433.413 182.867 431.951 186.157C430.581 189.355 429.895 193.376 429.895 198.219C429.895 205.437 431.449 210.92 434.556 214.667C437.663 218.322 441.775 220.149 446.892 220.149ZM530.175 233.171C526.154 233.171 522.133 232.851 518.113 232.211C514.092 231.663 510.3 230.795 506.736 229.607C503.173 228.328 499.974 226.774 497.142 224.947C495.497 223.85 494.355 222.525 493.715 220.972C493.075 219.418 492.847 217.911 493.03 216.448C493.304 214.895 493.898 213.57 494.811 212.474C495.817 211.286 497.05 210.555 498.512 210.28C499.974 210.006 501.573 210.418 503.31 211.514C507.33 213.89 511.579 215.626 516.057 216.723C520.534 217.819 525.24 218.367 530.175 218.367C537.394 218.367 542.648 217.179 545.937 214.804C549.227 212.336 550.872 209.184 550.872 205.346C550.872 202.148 549.684 199.635 547.308 197.807C545.024 195.98 541.049 194.472 535.383 193.284L520.306 190.132C511.625 188.304 505.137 185.243 500.842 180.948C496.639 176.562 494.537 170.805 494.537 163.678C494.537 159.2 495.451 155.134 497.279 151.479C499.106 147.824 501.665 144.671 504.954 142.021C508.335 139.371 512.31 137.361 516.879 135.99C521.539 134.528 526.657 133.797 532.231 133.797C537.713 133.797 542.922 134.483 547.856 135.853C552.791 137.224 557.223 139.234 561.152 141.884C562.614 142.889 563.573 144.123 564.03 145.585C564.578 147.047 564.715 148.509 564.441 149.971C564.167 151.342 563.528 152.53 562.522 153.535C561.517 154.54 560.238 155.134 558.685 155.317C557.223 155.499 555.532 155.043 553.613 153.946C550.232 152.027 546.805 150.656 543.333 149.834C539.861 149.012 536.114 148.6 532.094 148.6C527.89 148.6 524.281 149.194 521.265 150.382C518.25 151.57 515.92 153.261 514.275 155.454C512.722 157.555 511.945 160.068 511.945 162.992C511.945 166.282 513.041 168.932 515.234 170.942C517.427 172.861 521.174 174.369 526.474 175.466L541.414 178.618C550.461 180.537 557.177 183.552 561.563 187.664C566.04 191.776 568.279 197.259 568.279 204.112C568.279 208.499 567.365 212.474 565.538 216.037C563.802 219.601 561.243 222.662 557.862 225.221C554.573 227.779 550.598 229.744 545.937 231.115C541.277 232.485 536.023 233.171 530.175 233.171ZM590.191 257.568C587.449 257.568 585.348 256.837 583.886 255.375C582.423 253.913 581.692 251.766 581.692 248.933V172.313C581.692 169.48 582.423 167.333 583.886 165.871C585.348 164.409 587.404 163.678 590.054 163.678C592.795 163.678 594.897 164.409 596.359 165.871C597.821 167.333 598.552 169.48 598.552 172.313V183.004L597.044 178.892C598.415 174.232 601.202 170.485 605.405 167.653C609.7 164.82 614.68 163.404 620.345 163.404C626.193 163.404 631.311 164.82 635.697 167.653C640.174 170.485 643.647 174.506 646.114 179.715C648.581 184.832 649.815 191 649.815 198.219C649.815 205.346 648.581 211.56 646.114 216.86C643.647 222.068 640.22 226.089 635.834 228.922C631.448 231.754 626.285 233.171 620.345 233.171C614.771 233.171 609.883 231.8 605.679 229.059C601.476 226.226 598.643 222.571 597.181 218.093H598.826V248.933C598.826 251.766 598.049 253.913 596.496 255.375C595.034 256.837 592.932 257.568 590.191 257.568ZM615.548 220.149C618.929 220.149 621.899 219.327 624.457 217.682C627.016 216.037 628.98 213.616 630.351 210.418C631.813 207.128 632.544 203.062 632.544 198.219C632.544 190.908 630.991 185.471 627.884 181.908C624.777 178.253 620.665 176.425 615.548 176.425C612.167 176.425 609.197 177.247 606.639 178.892C604.08 180.446 602.07 182.867 600.608 186.157C599.237 189.355 598.552 193.376 598.552 198.219C598.552 205.437 600.105 210.92 603.212 214.667C606.319 218.322 610.431 220.149 615.548 220.149ZM696.912 233.171C689.328 233.171 682.794 231.754 677.311 228.922C671.829 226.089 667.58 222.068 664.564 216.86C661.64 211.651 660.178 205.483 660.178 198.356C660.178 191.411 661.594 185.334 664.427 180.126C667.351 174.917 671.326 170.851 676.352 167.927C681.469 164.911 687.272 163.404 693.759 163.404C698.511 163.404 702.76 164.18 706.507 165.734C710.345 167.287 713.588 169.526 716.238 172.45C718.98 175.374 721.036 178.938 722.406 183.141C723.868 187.253 724.599 191.914 724.599 197.122C724.599 198.767 724.006 200.046 722.818 200.96C721.721 201.782 720.122 202.194 718.02 202.194H674.022V192.325H712.538L710.345 194.381C710.345 190.177 709.705 186.659 708.426 183.827C707.238 180.994 705.456 178.846 703.08 177.384C700.796 175.831 697.917 175.054 694.445 175.054C690.607 175.054 687.317 175.968 684.576 177.796C681.926 179.532 679.87 182.045 678.408 185.334C677.037 188.533 676.352 192.37 676.352 196.848V197.807C676.352 205.3 678.088 210.92 681.561 214.667C685.124 218.322 690.333 220.149 697.186 220.149C699.562 220.149 702.212 219.875 705.136 219.327C708.151 218.687 710.984 217.636 713.634 216.174C715.553 215.078 717.244 214.621 718.706 214.804C720.168 214.895 721.31 215.398 722.132 216.311C723.046 217.225 723.594 218.367 723.777 219.738C723.96 221.017 723.686 222.342 722.955 223.713C722.315 225.084 721.173 226.272 719.528 227.277C716.33 229.287 712.629 230.795 708.426 231.8C704.314 232.714 700.476 233.171 696.912 233.171ZM771.201 233.171C763.617 233.171 757.083 231.754 751.601 228.922C746.118 226.089 741.869 222.068 738.853 216.86C735.929 211.651 734.467 205.483 734.467 198.356C734.467 191.411 735.884 185.334 738.716 180.126C741.64 174.917 745.615 170.851 750.641 167.927C755.758 164.911 761.561 163.404 768.049 163.404C772.8 163.404 777.049 164.18 780.796 165.734C784.634 167.287 787.878 169.526 790.527 172.45C793.269 175.374 795.325 178.938 796.695 183.141C798.158 187.253 798.889 191.914 798.889 197.122C798.889 198.767 798.295 200.046 797.107 200.96C796.01 201.782 794.411 202.194 792.309 202.194H748.311V192.325H786.827L784.634 194.381C784.634 190.177 783.994 186.659 782.715 183.827C781.527 180.994 779.745 178.846 777.369 177.384C775.085 175.831 772.206 175.054 768.734 175.054C764.896 175.054 761.606 175.968 758.865 177.796C756.215 179.532 754.159 182.045 752.697 185.334C751.326 188.533 750.641 192.37 750.641 196.848V197.807C750.641 205.3 752.377 210.92 755.85 214.667C759.413 218.322 764.622 220.149 771.475 220.149C773.851 220.149 776.501 219.875 779.425 219.327C782.441 218.687 785.273 217.636 787.923 216.174C789.842 215.078 791.533 214.621 792.995 214.804C794.457 214.895 795.599 215.398 796.421 216.311C797.335 217.225 797.883 218.367 798.066 219.738C798.249 221.017 797.975 222.342 797.244 223.713C796.604 225.084 795.462 226.272 793.817 227.277C790.619 229.287 786.918 230.795 782.715 231.8C778.603 232.714 774.765 233.171 771.201 233.171ZM843.434 233.171C836.398 233.171 830.276 231.754 825.067 228.922C819.859 225.997 815.838 221.885 813.005 216.586C810.173 211.286 808.756 205.072 808.756 197.944C808.756 192.553 809.533 187.756 811.086 183.552C812.731 179.258 815.061 175.648 818.077 172.724C821.092 169.709 824.747 167.424 829.042 165.871C833.337 164.226 838.134 163.404 843.434 163.404C846.45 163.404 849.694 163.815 853.166 164.637C856.73 165.46 860.065 166.83 863.172 168.749C864.634 169.663 865.593 170.76 866.05 172.039C866.507 173.318 866.598 174.643 866.324 176.014C866.05 177.293 865.456 178.435 864.542 179.44C863.72 180.354 862.669 180.948 861.39 181.222C860.111 181.405 858.694 181.085 857.141 180.263C855.131 179.075 853.075 178.207 850.973 177.659C848.871 177.019 846.861 176.699 844.942 176.699C841.926 176.699 839.276 177.202 836.992 178.207C834.708 179.121 832.743 180.491 831.098 182.319C829.545 184.055 828.357 186.248 827.534 188.898C826.712 191.548 826.301 194.609 826.301 198.082C826.301 204.843 827.9 210.189 831.098 214.118C834.388 217.956 839.002 219.875 844.942 219.875C846.861 219.875 848.825 219.601 850.836 219.053C852.937 218.504 855.039 217.636 857.141 216.448C858.694 215.626 860.065 215.352 861.253 215.626C862.532 215.9 863.583 216.54 864.405 217.545C865.228 218.459 865.73 219.601 865.913 220.972C866.096 222.251 865.913 223.53 865.365 224.81C864.908 226.089 863.994 227.14 862.624 227.962C859.608 229.79 856.41 231.115 853.029 231.937C849.648 232.759 846.45 233.171 843.434 233.171ZM885.607 232.896C882.865 232.896 880.764 232.165 879.302 230.703C877.84 229.15 877.109 226.957 877.109 224.124V142.707C877.109 139.874 877.84 137.726 879.302 136.264C880.764 134.802 882.865 134.071 885.607 134.071C888.348 134.071 890.45 134.802 891.912 136.264C893.465 137.726 894.242 139.874 894.242 142.707V178.207H892.323C894.333 173.364 897.44 169.709 901.644 167.242C905.938 164.683 910.781 163.404 916.173 163.404C921.564 163.404 925.996 164.409 929.468 166.419C932.941 168.429 935.545 171.491 937.281 175.603C939.017 179.623 939.885 184.74 939.885 190.954V224.124C939.885 226.957 939.154 229.15 937.692 230.703C936.23 232.165 934.128 232.896 931.387 232.896C928.646 232.896 926.498 232.165 924.945 230.703C923.483 229.15 922.752 226.957 922.752 224.124V191.776C922.752 186.568 921.747 182.776 919.736 180.4C917.817 178.024 914.802 176.836 910.69 176.836C905.664 176.836 901.644 178.435 898.628 181.634C895.704 184.74 894.242 188.898 894.242 194.107V224.124C894.242 229.972 891.364 232.896 885.607 232.896Z" fill="#FDFDFD"/>
<path d="M106.667 158C106.667 132.816 127.082 112.4 152.266 112.4H153.466C177.988 112.4 197.867 132.279 197.867 156.8C197.867 181.321 177.988 201.2 153.466 201.2H106.667V158Z" fill="#FDFDFD"/>
<path d="M106.667 210.8H185.866C199.121 210.8 209.867 221.545 209.867 234.8V258.8C209.867 272.055 199.121 282.8 185.867 282.8H130.667C117.412 282.8 106.667 272.055 106.667 258.8V210.8Z" fill="#FDFDFD"/>
<circle cx="238.066" cy="122.6" r="33" fill="#958AF0"/>
</svg>
