<svg viewBox="0 0 1250 450" fill="none" xmlns="http://www.w3.org/2000/svg">
	<path d="M326.547 306.659L327.56 266.073L285.488 265.6L326.547 306.659Z" fill="#293587" />
	<path d="M286.353 183.658H258.257H218.922L187.99 209.603L295.719 213.628L327.561 183.658H286.353Z" fill="#293587" />
	<path d="M327.359 116.859L95.2763 116.888L164.149 185.761L327.562 183.658L327.359 116.859Z" fill="#98A5FE" />
	<path d="M327.562 209.88L187.99 209.601L244.735 266.347L327.561 266.073L327.562 209.88Z" fill="#98A5FE" />
	<path d="M1102.6 322.771C1099.48 322.771 1096.92 321.92 1094.94 320.219C1092.95 318.659 1091.75 316.532 1091.32 313.837C1091.04 311.143 1091.54 308.307 1092.81 305.329L1107.28 273.209V284.27L1068.56 194.718C1067.29 191.598 1066.86 188.691 1067.29 185.996C1067.71 183.302 1068.99 181.175 1071.12 179.615C1073.38 177.913 1076.43 177.062 1080.26 177.062C1083.52 177.062 1086.15 177.842 1088.13 179.402C1090.12 180.82 1091.89 183.586 1093.45 187.698L1122.17 259.383H1115.79L1145.14 187.485C1146.7 183.515 1148.54 180.82 1150.67 179.402C1152.8 177.842 1155.63 177.062 1159.18 177.062C1162.3 177.062 1164.78 177.913 1166.62 179.615C1168.47 181.175 1169.6 183.302 1170.03 185.996C1170.45 188.549 1169.96 191.385 1168.54 194.505L1116.85 312.561C1115.01 316.532 1113.02 319.226 1110.89 320.644C1108.77 322.062 1106 322.771 1102.6 322.771Z" fill="#4B4E4E" />
	<path d="M1046.52 284.909C1034.75 284.909 1025.88 281.576 1019.93 274.911C1013.97 268.104 1010.99 258.178 1010.99 245.131V144.518C1010.99 140.122 1012.13 136.789 1014.4 134.52C1016.67 132.251 1019.93 131.117 1024.18 131.117C1028.44 131.117 1031.7 132.251 1033.97 134.52C1036.38 136.789 1037.58 140.122 1037.58 144.518V243.855C1037.58 250.378 1038.93 255.2 1041.62 258.319C1044.46 261.439 1048.43 262.999 1053.54 262.999C1054.67 262.999 1055.73 262.999 1056.73 262.999C1057.72 262.857 1058.71 262.716 1059.71 262.574C1061.69 262.29 1063.04 262.857 1063.75 264.275C1064.46 265.552 1064.81 268.246 1064.81 272.359C1064.81 275.904 1064.1 278.669 1062.68 280.654C1061.26 282.64 1058.93 283.845 1055.66 284.271C1054.25 284.412 1052.76 284.554 1051.2 284.696C1049.64 284.838 1048.08 284.909 1046.52 284.909Z" fill="#4B4E4E" />
	<path d="M974.303 284.908C965.085 284.908 957.357 283.348 951.117 280.229C945.02 277.109 940.482 272.571 937.504 266.615C934.526 260.517 933.037 253.001 933.037 244.067V198.759H921.976C918.572 198.759 915.949 197.908 914.105 196.207C912.262 194.363 911.34 191.882 911.34 188.762C911.34 185.5 912.262 183.019 914.105 181.317C915.949 179.615 918.572 178.764 921.976 178.764H933.037V159.407C933.037 155.011 934.171 151.679 936.44 149.41C938.851 147.141 942.183 146.006 946.438 146.006C950.692 146.006 953.953 147.141 956.222 149.41C958.491 151.679 959.626 155.011 959.626 159.407V178.764H982.173C985.577 178.764 988.2 179.615 990.044 181.317C991.887 183.019 992.809 185.5 992.809 188.762C992.809 191.882 991.887 194.363 990.044 196.207C988.2 197.908 985.577 198.759 982.173 198.759H959.626V242.578C959.626 249.385 961.115 254.49 964.093 257.894C967.071 261.297 971.892 262.999 978.557 262.999C980.968 262.999 983.095 262.786 984.939 262.361C986.782 261.935 988.413 261.652 989.831 261.51C991.533 261.368 992.951 261.935 994.085 263.212C995.22 264.346 995.787 266.757 995.787 270.444C995.787 273.28 995.291 275.833 994.298 278.101C993.447 280.229 991.817 281.718 989.406 282.568C987.562 283.136 985.151 283.632 982.173 284.057C979.195 284.625 976.572 284.908 974.303 284.908Z" fill="#4B4E4E" />
	<path d="M815.415 284.484C811.161 284.484 807.899 283.35 805.63 281.081C803.361 278.67 802.227 275.266 802.227 270.87V190.465C802.227 186.068 803.361 182.736 805.63 180.467C807.899 178.198 811.09 177.064 815.202 177.064C819.315 177.064 822.505 178.198 824.774 180.467C827.043 182.736 828.178 186.068 828.178 190.465V204.929L825.838 199.611C828.958 192.095 833.779 186.423 840.302 182.594C846.967 178.624 854.483 176.638 862.85 176.638C871.217 176.638 878.094 178.198 883.483 181.318C888.872 184.438 892.913 189.188 895.608 195.57C898.302 201.809 899.649 209.751 899.649 219.394V270.87C899.649 275.266 898.515 278.67 896.246 281.081C893.977 283.35 890.715 284.484 886.461 284.484C882.207 284.484 878.874 283.35 876.464 281.081C874.195 278.67 873.06 275.266 873.06 270.87V220.67C873.06 212.587 871.5 206.702 868.381 203.015C865.403 199.328 860.723 197.484 854.341 197.484C846.542 197.484 840.302 199.966 835.623 204.929C831.085 209.751 828.816 216.203 828.816 224.286V270.87C828.816 279.946 824.349 284.484 815.415 284.484Z" fill="#4B4E4E" />
	<path d="M738.201 284.909C726.431 284.909 716.292 282.711 707.783 278.315C699.275 273.919 692.681 267.68 688.001 259.596C683.463 251.513 681.194 241.941 681.194 230.88C681.194 220.103 683.392 210.672 687.788 202.589C692.326 194.506 698.495 188.196 706.294 183.658C714.236 178.978 723.24 176.638 733.309 176.638C740.683 176.638 747.277 177.844 753.091 180.254C759.047 182.665 764.081 186.139 768.194 190.677C772.448 195.215 775.639 200.746 777.766 207.269C780.035 213.65 781.17 220.883 781.17 228.966C781.17 231.518 780.248 233.504 778.404 234.922C776.703 236.198 774.221 236.836 770.959 236.836H702.678V221.521H762.451L759.047 224.711C759.047 218.188 758.055 212.729 756.069 208.333C754.226 203.936 751.461 200.604 747.773 198.335C744.228 195.924 739.761 194.719 734.373 194.719C728.417 194.719 723.311 196.137 719.057 198.973C714.945 201.667 711.754 205.567 709.485 210.672C707.358 215.636 706.294 221.592 706.294 228.54V230.029C706.294 241.658 708.989 250.379 714.377 256.193C719.908 261.865 727.991 264.702 738.627 264.702C742.314 264.702 746.426 264.276 750.964 263.425C755.644 262.433 760.04 260.802 764.152 258.533C767.13 256.831 769.754 256.122 772.023 256.406C774.292 256.548 776.064 257.328 777.341 258.746C778.759 260.164 779.61 261.936 779.893 264.063C780.177 266.049 779.751 268.105 778.617 270.232C777.624 272.359 775.852 274.203 773.299 275.763C768.336 278.883 762.593 281.222 756.069 282.782C749.688 284.2 743.732 284.909 738.201 284.909Z" fill="#4B4E4E" />
	<path d="M601.405 284.908C592.755 284.908 585.593 283.348 579.921 280.229C574.249 276.967 569.994 272.145 567.158 265.764C564.464 259.383 563.117 251.441 563.117 241.94V190.463C563.117 185.926 564.251 182.593 566.52 180.466C568.789 178.197 572.051 177.062 576.305 177.062C580.559 177.062 583.821 178.197 586.09 180.466C588.501 182.593 589.706 185.926 589.706 190.463V242.366C589.706 249.74 591.195 255.199 594.173 258.745C597.151 262.29 601.901 264.062 608.425 264.062C615.515 264.062 621.329 261.652 625.867 256.83C630.405 251.867 632.674 245.344 632.674 237.26V190.463C632.674 185.926 633.809 182.593 636.077 180.466C638.346 178.197 641.608 177.062 645.862 177.062C650.117 177.062 653.378 178.197 655.647 180.466C658.058 182.593 659.263 185.926 659.263 190.463V270.869C659.263 279.945 654.938 284.483 646.288 284.483C642.175 284.483 638.985 283.348 636.716 281.079C634.447 278.669 633.312 275.265 633.312 270.869V254.703L636.29 261.084C633.312 268.742 628.774 274.627 622.677 278.74C616.721 282.852 609.63 284.908 601.405 284.908Z" fill="#4B4E4E" />
	<path d="M438.973 284.483C434.719 284.483 431.387 283.349 428.976 281.08C426.707 278.669 425.572 275.266 425.572 270.87V198.76H415.788C412.384 198.76 409.761 197.909 407.917 196.207C406.074 194.364 405.152 191.882 405.152 188.762C405.152 185.5 406.074 183.019 407.917 181.317C409.761 179.615 412.384 178.765 415.788 178.765H433.23L425.572 185.784V178.552C425.572 163.946 429.259 153.026 436.633 145.794C444.008 138.42 454.643 134.095 468.541 132.818L475.773 132.18C478.609 131.897 480.878 132.393 482.58 133.669C484.281 134.804 485.416 136.364 485.983 138.349C486.55 140.192 486.621 142.107 486.196 144.092C485.77 146.078 484.849 147.85 483.43 149.41C482.154 150.828 480.452 151.608 478.325 151.75L475.347 151.963C467.264 152.53 461.379 154.586 457.692 158.131C454.005 161.677 452.162 167.065 452.162 174.298V182.168L448.758 178.765H470.242C473.646 178.765 476.269 179.615 478.113 181.317C479.956 183.019 480.878 185.5 480.878 188.762C480.878 191.882 479.956 194.364 478.113 196.207C476.269 197.909 473.646 198.76 470.242 198.76H452.162V270.87C452.162 279.945 447.765 284.483 438.973 284.483ZM531.504 284.909C519.734 284.909 510.871 281.576 504.915 274.911C498.959 268.104 495.981 258.178 495.981 245.131V144.518C495.981 140.122 497.115 136.789 499.384 134.52C501.653 132.251 504.915 131.117 509.169 131.117C513.423 131.117 516.685 132.251 518.954 134.52C521.364 136.789 522.57 140.122 522.57 144.518V243.855C522.57 250.378 523.917 255.2 526.611 258.319C529.447 261.439 533.418 262.999 538.523 262.999C539.658 262.999 540.721 262.999 541.714 262.999C542.707 262.857 543.699 262.716 544.692 262.574C546.677 262.29 548.024 262.857 548.734 264.275C549.443 265.552 549.797 268.246 549.797 272.359C549.797 275.904 549.088 278.669 547.67 280.654C546.252 282.64 543.912 283.845 540.65 284.271C539.232 284.412 537.743 284.554 536.183 284.696C534.624 284.838 533.064 284.909 531.504 284.909Z" fill="#4B4E4E" />
</svg>
